<svg xmlns="http://www.w3.org/2000/svg" viewBox="0 0 433.52 505.39"><defs><style>.cls-1{fill:#c4bdb8;opacity:0.23;}.cls-2{fill:#8d183b;}.cls-3{fill:#bdb8b1;}.cls-4{fill:#febe2a;}.cls-5{fill:#f58e24;}.cls-6{fill:#fbaf40;}.cls-7{fill:#fffefe;}.cls-8{fill:#02534e;}</style></defs><g id="Layer_2" data-name="Layer 2"><g id="Layer_1-2" data-name="Layer 1"><ellipse class="cls-1" cx="215.46" cy="468.61" rx="196.49" ry="36.79"/><path class="cls-2" d="M371.51,443.64c-2.58,2.61-4.66,5.66-7.37,8.18a52,52,0,0,1-34.62,14.49c-4.19.16-8.38,0-12.56,0a4.18,4.18,0,0,0-3,.79c-13.94,11.35-30.12,16.33-47.9,16.54-17.44.2-33.39-4.46-47.45-15-1.21-.9-2-.94-3.17,0-18.37,14.15-39.2,17.43-61.52,13.57a69.07,69.07,0,0,1-33.22-15.08,4.34,4.34,0,0,0-3.21-.81c-7.62,0-15.27.5-22.83-1-13.85-2.69-24.85-9.87-33.28-21.13-.34-.45-.08-1.2-.78-1.42-2-3.95-4.71-7.51-6-11.78A71.86,71.86,0,0,1,52,419.76c-.4-2.8-1.45-5.56-1.54-8.36a62.89,62.89,0,0,1,12-39.06c2.83-4,5.79-7.85,9.62-10.81,3-2.29,5.82-4.9,9.46-6.17,3-1.06,5.63-3.06,8.83-3.82,2.35-.55,4.53-1.86,7-2s3.25-2.11,3.84-4c1.85-5.84,4.31-11.45,6.56-17.13.31-.79-.09-1.9,1.08-2.55.5-.28-.06-1.18-1-1.69-6.38-3.51-12.71-7.12-18.8-11.13a116.92,116.92,0,0,1-20.24-16.74c-1.19-1.25-2.1-1.15-3.38-.43a25,25,0,0,1-29-3.08c-6.89-6.23-10.24-14.14-12.36-23-1.06-4.35-1.55-8.77-2.47-13.12-.34-1.64-2.08-2.48-3.31-3.4A49.53,49.53,0,0,1,3.74,237.25,33.77,33.77,0,0,1,.18,226.41a21,21,0,0,1,1.25-9.93c.92-2.67,2.69-4.79,4.31-7,2-2.78,5.2-4.2,7.79-6.32a57.62,57.62,0,0,0,6.41-5.75,6.85,6.85,0,0,0,1.63-4.65c0-.74,0-1.48,0-2.22-.49-8.16.2-16.33.83-24.43a154.08,154.08,0,0,1,2.8-21.92c1.22-5.51,2.68-11,4.06-16.43a135.83,135.83,0,0,1,6.41-19.62C38,102.6,40,96.89,42.89,91.64c1.67-3,.53-5.94-.18-8.61-1.49-5.59-2.91-11.22-4-16.88-.56-2.84-.39-6-.89-8.92-.92-5.32-.34-10.58-.5-15.87A66.68,66.68,0,0,1,39.7,22.19c.81-3,1.36-6.22,2.9-8.79s3-5.36,5.62-7.46A38.71,38.71,0,0,1,56,.72,5.68,5.68,0,0,1,58.56.11C62.67.14,66.8.4,70.88.05c5.23-.43,9.3,2.35,13.67,4.31a64.11,64.11,0,0,1,7.88,4.51c4,2.57,7.93,5.42,12,8s7.53,6.05,11.71,8.54c2.52,1.51,4.55,3.83,6.86,5.71,4.63,3.76,9.4,7.37,13.73,11.5,1.28,1.22,3.06,1.86,4.21,3.3a1.52,1.52,0,0,0,1.61.35c4.44-1,9-1.32,13.44-2.28s8.56-1.11,12.84-1.65c6.6-.83,13.25-.84,19.85-1.43,17.41-1.58,34.84-.65,52.24-.46,4.86.06,10-.28,14.91,1.26a4.13,4.13,0,0,0,1.22,0c4.62,0,9.11.88,13.65,1.54a82.82,82.82,0,0,0,8.39,1,57.46,57.46,0,0,1,11.86,1.8,4.08,4.08,0,0,0,4-.89A150.78,150.78,0,0,1,308.07,34.4c2.43-1.67,4.34-4.11,6.81-5.71,2.86-1.86,5-4.57,8.19-6.09,1.55-.74,2.81-2.25,4.33-3.33,3.81-2.68,7.66-5.34,11.36-8.13,5.19-3.92,11.29-5.69,16.82-8.72,4.74-2.6,9.67-2,14.63-2.36,7.9-.6,13.13,3.37,17.6,9.18a37.32,37.32,0,0,1,6.76,15.7,52.93,52.93,0,0,1,1.15,13c-.06,1.53.84,2.84.67,4.28-.7,6-.34,12-.95,18A167.26,167.26,0,0,1,391,82.9c-.38,1.54-.69,3.1-1,4.66-.55,3.13,1.57,5.51,2.59,8.13,1.18,3,2.34,6.1,3.7,9a109.24,109.24,0,0,1,5.44,15.09c1.25,4.27,2.06,8.75,3.45,13a132.33,132.33,0,0,1,3.51,14.12c.61,2.94.87,6,1.33,9.06,1.54,10,1.1,20.13,1.41,30.21a35.11,35.11,0,0,0,.75,7.64c.86,3.34,3.31,5.74,6.06,7.52a42.09,42.09,0,0,1,11.38,10.31,22.26,22.26,0,0,1,3.56,9c.74,3.85-.17,7.33-.84,10.84a18.46,18.46,0,0,1-2.49,6.09,45,45,0,0,1-8.44,10.58c-2.78,2.44-5.41,5.07-8.37,7.32a4.82,4.82,0,0,0-1.68,3.6,85,85,0,0,1-2.65,14.1,43.93,43.93,0,0,1-6.34,13.57,32.13,32.13,0,0,1-12.57,10.52,20,20,0,0,1-11.23,1.75,29.15,29.15,0,0,1-10.83-3.24c-1.64-.92-2.86-1.42-3.92,1a6.91,6.91,0,0,1-3.53,3.18c-2.43,1.11-3.71,3.85-6.11,5.11-4.4,2.33-7.76,6-11.85,8.82-4.66,3.17-9.88,5.35-14.33,8.77-.4.31-1.11.16-1.63.36-.81.31-1.32.86-.84,1.82,3.13,6.23,4.61,13.1,7.52,19.42a8.51,8.51,0,0,1,.4,2.34c.37,2.59,2.29,3,4.2,3.45a51.55,51.55,0,0,1,20.23,9.38c3.35,2.59,6.75,5.08,9.22,8.51,2.27,3.15,4.57,6.28,6.59,9.64,2.47,4.12,4,8.62,5.84,13a19.94,19.94,0,0,1,1.31,5.86c.22,2.38.78,4.81,1.09,7.15.45,3.48,1.36,7.22-.57,10.67a1.78,1.78,0,0,0-.2.93c.36,5-1.25,9.79-2.63,14.44s-3.95,8.62-6.55,12.61c-.24,0-.34.17-.24.42C371.7,443,371.61,443.31,371.51,443.64ZM384.05,48.4c.61-3.68.08-8-.27-12.36-.51-6.47-1.43-12.91-5-18.6-3-4.76-7.34-6.7-12.8-5.64A42.87,42.87,0,0,0,353,17c-19.62,11.17-36.77,25.54-52.95,41.13A6.07,6.07,0,0,1,294.16,60a394.34,394.34,0,0,0-53.51-6c-12.13-.59-24.27-.63-36.43-.32-21.36.54-42.61,2.05-63.63,6a6.21,6.21,0,0,1-6-1.78A292.55,292.55,0,0,0,92.68,23.66c-6.62-4.45-13.48-8.5-21.07-11.12C63.18,9.62,57.26,12,53.28,20.05c-2.86,5.78-3.67,12.06-4,18.4-.85,16.45,2.16,32.36,7,48a8.14,8.14,0,0,1-.39,6.6c-8.36,16.06-13.59,33.22-17.39,50.85a197.57,197.57,0,0,0-4.13,47c.19,7.44-2.71,13.53-8.21,18.5-2.76,2.5-6,4.34-8.88,6.61-4.43,3.48-5.65,8-3.39,13.14,2.94,6.68,8.12,11.5,13.83,15.71,7.55,5.56,5.61,3,6.78,12.38.92,7.44,2,14.84,5.92,21.42,4.35,7.31,12.41,10.95,20.69,5l3.43-2.41c3.68-2.54,6.3-2.22,9.27,1.12a125.22,125.22,0,0,0,16.17,15.48,115.71,115.71,0,0,0,34.93,19.36,11.85,11.85,0,0,0,8.38-.23,39.44,39.44,0,0,0,8.09-4.66c4.26-2.94,6.78-2.79,10.5.76,10.65,10.21,23.37,16.57,37.56,20.09a112,112,0,0,0,50,.93c16.24-3.34,30.81-10.14,42.75-22,2.31-2.29,4.52-2.57,7.65-.92a61.27,61.27,0,0,1,5.19,3.29c5.21,3.49,10.47,4.22,16.52,1.76a128.7,128.7,0,0,0,47.64-33.68c3.17-3.52,5.71-3.95,9.69-1.34a55.54,55.54,0,0,0,6.05,3.77c5.51,2.67,10.75,1.83,15.07-2.54a26.71,26.71,0,0,0,6.21-10.78c2.07-6.29,2.86-12.8,3.4-19.35a5.57,5.57,0,0,1,2.79-4.86,35.56,35.56,0,0,0,4.43-3.1c5.28-4.24,10.34-8.68,12.89-15.22,2.11-5.42.85-10-3.73-13.54-1.29-1-2.66-1.93-4-2.82-8.85-5.7-13.39-13.54-12.92-24.33a157.39,157.39,0,0,0-1.81-31.41c-3.55-22.52-9.82-44.19-20-64.66a5.59,5.59,0,0,1-.32-4.49C381,75.27,383.72,62.39,384.05,48.4ZM265.28,470.79c3.1-.07,6.21-.11,9.33-.4C300,468,320,449.22,325.77,423.14c3.87-17.64,3.51-35.36.86-53.1-1.95-13.07-5.48-25.66-11.67-37.42-1-1.87-1.86-3.37-4.47-2.13-1.17.55-2.74.36-4.13.35-6.06,0-11.59-2.14-16.91-4.77a2.84,2.84,0,0,0-3.67.41,97.39,97.39,0,0,1-33,18.11,119.71,119.71,0,0,1-57.18,3.78c-17.88-3.07-34.16-9.9-48.26-21.48-1.76-1.45-2.92-1.77-5-.61-5.75,3.17-11.86,5.51-18.59,4.28-2.31-.42-3.18.28-4.09,2.16a128.21,128.21,0,0,0-10.94,34.11c-3.27,18.69-3.74,37.4.3,56,3.41,15.76,11.13,28.91,24.84,37.93,16.22,10.68,34.05,12.08,52.53,8.19,10.45-2.2,19.29-7.67,27.16-14.78,2.69-2.43,4.44-2.48,6.89-.23C233.08,465.59,248,471.35,265.28,470.79ZM63,408.41a43.32,43.32,0,0,0,1,9.95c4.22,19.83,17.59,34.84,41.17,35.16.76,0,1.8.48,2.24-.36.36-.68-.45-1.34-.81-2a82.44,82.44,0,0,1-8.51-19.32c-6.38-21.8-6.22-43.86-2.38-66,.12-.71.67-1.59.09-2.1s-1.53.13-2.25.39C75.07,370.85,63.08,388.11,63,408.41ZM369.49,412c0-13.7-3-23.38-9.37-32.11a45.74,45.74,0,0,0-18.85-15.4c-.72-.32-1.57-1-2.28-.6-.88.56,0,1.49.06,2.25.37,2.84.9,5.66,1.25,8.51a154.2,154.2,0,0,1-.08,39.75,99.12,99.12,0,0,1-13.08,37.63c-.52.89-1.34,1.9.64,1.78,6.44-.39,12.77-1.39,18.48-4.57C361.94,440.54,368.85,426.66,369.49,412Z"/><path class="cls-3" d="M371.8,442.66c-.1-.25,0-.38.24-.42Z"/><path class="cls-4" d="M384.05,48.4c-.33,14-3.09,26.87-7.1,39.52a5.59,5.59,0,0,0,.32,4.49c10.13,20.47,16.4,42.14,20,64.66A157.39,157.39,0,0,1,399,188.48c-.47,10.79,4.07,18.63,12.92,24.33,1.38.89,2.75,1.81,4,2.82,4.58,3.56,5.84,8.12,3.73,13.54-2.55,6.54-7.61,11-12.89,15.22a35.56,35.56,0,0,1-4.43,3.1,5.57,5.57,0,0,0-2.79,4.86c-.54,6.55-1.33,13.06-3.4,19.35A26.71,26.71,0,0,1,390,282.48c-4.32,4.37-9.56,5.21-15.07,2.54a55.54,55.54,0,0,1-6.05-3.77c-4-2.61-6.52-2.18-9.69,1.34a128.7,128.7,0,0,1-47.64,33.68c-6.05,2.46-11.31,1.73-16.52-1.76a61.27,61.27,0,0,0-5.19-3.29c-3.13-1.65-5.34-1.37-7.65.92-11.94,11.82-26.51,18.62-42.75,22a112,112,0,0,1-50-.93c-14.19-3.52-26.91-9.88-37.56-20.09-3.72-3.55-6.24-3.7-10.5-.76a39.44,39.44,0,0,1-8.09,4.66,11.85,11.85,0,0,1-8.38.23,115.71,115.71,0,0,1-34.93-19.36,125.22,125.22,0,0,1-16.17-15.48c-3-3.34-5.59-3.66-9.27-1.12l-3.43,2.41c-8.28,5.91-16.34,2.27-20.69-5-3.91-6.58-5-14-5.92-21.42-1.17-9.39.77-6.82-6.78-12.38-5.71-4.21-10.89-9-13.83-15.71-2.26-5.13-1-9.66,3.39-13.14,2.91-2.27,6.12-4.11,8.88-6.61,5.5-5,8.4-11.06,8.21-18.5a197.57,197.57,0,0,1,4.13-47c3.8-17.63,9-34.79,17.39-50.85a8.14,8.14,0,0,0,.39-6.6c-4.8-15.63-7.81-31.54-7-48,.33-6.34,1.14-12.62,4-18.4,4-8,9.9-10.43,18.33-7.51,7.59,2.62,14.45,6.67,21.07,11.12a292.55,292.55,0,0,1,41.88,34.23,6.21,6.21,0,0,0,6,1.78c21-4,42.27-5.48,63.63-6,12.16-.31,24.3-.27,36.43.32a394.34,394.34,0,0,1,53.51,6,6.07,6.07,0,0,0,5.92-1.85C316.26,42.54,333.41,28.17,353,17a42.87,42.87,0,0,1,13-5.2c5.46-1.06,9.84.88,12.8,5.64,3.55,5.69,4.47,12.13,5,18.6C384.13,40.36,384.66,44.72,384.05,48.4ZM229.12,234.26a23.38,23.38,0,0,0,2.21-1c5.76-3.46,10.51-8.11,14.94-13.06,2.87-3.2,5.23-6.85,5.49-11.3.39-6.67-3.55-11.14-8.51-14.63a41.17,41.17,0,0,0-50,1.9c-6.79,5.64-8.61,13.07-2.92,20.8a63.81,63.81,0,0,0,15.78,15c2,1.38,3.36,2.71,3,5.25a10.05,10.05,0,0,1-2.35,5.07c-4.48,5.15-10.25,6.14-16.58,5s-11.06-4.85-14.9-10c-3.24-4.37-8.39-5-12.16-2.05s-4.58,8.73-1.5,13a41.51,41.51,0,0,0,6.31,6.87c14.35,12.72,35.14,14.54,50,1.32,1.14-1,1.79-.91,2.85.05a33,33,0,0,0,12.73,7.26c14.33,4.29,26.86.61,37.94-8.94a25.43,25.43,0,0,0,6.74-8.08,9.37,9.37,0,0,0-3.67-12.42c-3.87-2.3-8.72-1.1-11.75,2.9-.34.46-.65,1-1,1.41-4.89,6.62-11.5,9.64-19.65,9C235.35,247,228.62,241.18,229.12,234.26ZM127.76,205.61a6,6,0,0,0,2.4-.41,44.41,44.41,0,0,1,21.91,0c3.26.87,6.28,2.35,9.44,3.49,2.45,2.15,5.11,4.07,7.07,6.65.78-.27.87-.9,1.15-1.37a62.78,62.78,0,0,0,8.9-29.64c.65-13.65-1.43-26.79-9.64-38.15-10.31-14.27-24.26-21-41.86-17.8C113,131,103,139.85,96.89,152.52,88.2,170.59,88.28,189.29,95,208c2.08,5.83,5.8,10.68,9.94,15.41a53,53,0,0,1,5-6.27A49.83,49.83,0,0,1,127.76,205.61Zm186.77,1a5.56,5.56,0,0,0,1,.76,42,42,0,0,1,17.17,14.7c.72,1.08,1.14.72,1.82,0a40.36,40.36,0,0,0,7.46-12.36c4.52-11.14,5.29-22.79,4.41-34.6a58.38,58.38,0,0,0-8.77-27.61c-11.74-18.36-34.27-25.14-53.12-15.5-17.23,8.8-24.71,23.94-26.13,42.55a63.07,63.07,0,0,0,9,37.92c1.88,3.16,1.86,3.3,4.53.82s6.08-3.84,8.87-6.11a8.85,8.85,0,0,0,3.78-.89,43.65,43.65,0,0,1,22.21-1.64C309.39,205.09,311.82,206.39,314.53,206.59Zm-171-113.37a83.29,83.29,0,0,0-21.28,2.57c-11.36,2.91-21.81,7.69-30.49,15.76A8.58,8.58,0,0,0,91,123.9c3.09,3.51,7.82,3.85,11.93.65C116.62,113.89,132,110.83,148.87,114a13.42,13.42,0,0,0,5.13.11,9.57,9.57,0,0,0,8-7.13c1.15-4-.16-7.29-3.08-10a13.21,13.21,0,0,0-7.07-3.21A48.19,48.19,0,0,0,143.57,93.22ZM290.75,94.4c-3.17.23-7,0-10.6,1.35-3.8,1.42-6.32,4-6.84,8.2a9.39,9.39,0,0,0,3.87,9.26,12.05,12.05,0,0,0,9.6,2c10.61-1.8,21.05-1.44,31.27,2.21A54.26,54.26,0,0,1,333.12,126c3.93,3.06,8.7,2.54,11.73-.9a8.87,8.87,0,0,0-.47-11.89,23.55,23.55,0,0,0-3.1-2.8C326.53,99.23,309.56,94.86,290.75,94.4Z"/><path class="cls-4" d="M265.28,470.79c-17.29.56-32.2-5.2-44.92-16.83-2.45-2.25-4.2-2.2-6.89.23-7.87,7.11-16.71,12.58-27.16,14.78-18.48,3.89-36.31,2.49-52.53-8.19-13.71-9-21.43-22.17-24.84-37.93-4-18.62-3.57-37.33-.3-56a128.21,128.21,0,0,1,10.94-34.11c.91-1.88,1.78-2.58,4.09-2.16,6.73,1.23,12.84-1.11,18.59-4.28,2.12-1.16,3.28-.84,5,.61,14.1,11.58,30.38,18.41,48.26,21.48a119.71,119.71,0,0,0,57.18-3.78,97.39,97.39,0,0,0,33-18.11,2.84,2.84,0,0,1,3.67-.41c5.32,2.63,10.85,4.72,16.91,4.77,1.39,0,3,.2,4.13-.35,2.61-1.24,3.48.26,4.47,2.13,6.19,11.76,9.72,24.35,11.67,37.42,2.65,17.74,3,35.46-.86,53.1C320,449.22,300,468,274.61,470.39,271.49,470.68,268.38,470.72,265.28,470.79ZM217.1,438.9l.49,0a8.47,8.47,0,0,0,.2-1.12,87,87,0,0,1,3.71-19.89c1.52-5.12,4-9.84,5.67-14.87,1-2.86,0-4.18-3.08-4.2q-6.94,0-13.9,0c-2.74,0-3.43.83-3.25,3.6a6.48,6.48,0,0,0,.88,2.52,88.74,88.74,0,0,1,7,21.57C215.71,430.61,216.36,434.76,217.1,438.9Z"/><path class="cls-4" d="M63,408.41c0-20.3,12-37.56,30.58-44.26.72-.26,1.56-1,2.25-.39s0,1.39-.09,2.1c-3.84,22.17-4,44.23,2.38,66a82.44,82.44,0,0,0,8.51,19.32c.36.61,1.17,1.27.81,2-.44.84-1.48.37-2.24.36-23.58-.32-36.95-15.33-41.17-35.16A43.32,43.32,0,0,1,63,408.41Z"/><path class="cls-4" d="M369.49,412c-.64,14.62-7.55,28.5-23.23,37.24-5.71,3.18-12,4.18-18.48,4.57-2,.12-1.16-.89-.64-1.78a99.12,99.12,0,0,0,13.08-37.63,154.2,154.2,0,0,0,.08-39.75c-.35-2.85-.88-5.67-1.25-8.51-.1-.76-.94-1.69-.06-2.25.71-.44,1.56.28,2.28.6a45.74,45.74,0,0,1,18.85,15.4C366.48,388.66,369.49,398.34,369.49,412Z"/><path class="cls-5" d="M217.1,438.9c-.74-4.14-1.39-8.29-2.24-12.41a88.74,88.74,0,0,0-7-21.57,6.48,6.48,0,0,1-.88-2.52c-.18-2.77.51-3.59,3.25-3.6q6.94,0,13.9,0c3.06,0,4,1.34,3.08,4.2-1.69,5-4.15,9.75-5.67,14.87a87,87,0,0,0-3.71,19.89,8.47,8.47,0,0,1-.2,1.12Z"/><path class="cls-6" d="M311.17,80.32c-13.52,10.22-31.84-1.51-45.38,3.24a19.74,19.74,0,0,1-13.18-.12,102.87,102.87,0,0,0-72,.78,17.47,17.47,0,0,1-12.17.33c-13.67-5-32.08,7.45-45.93-2.67-51.11-37.32-63.33,21-63,63.21.26,31.06,20.69,72.18,48.58,88.16A37.39,37.39,0,0,1,126.17,257c11.51,48.39,41.32,71,92.7,70.65,51.39-.53,80.82-23.6,91.52-72.17a37.44,37.44,0,0,1,17.68-24c27.62-16.43,47.37-57.88,47.11-88.94C374.83,100.24,361.65,42.15,311.17,80.32Z"/><path class="cls-7" d="M280.75,207.14c-2.79,2.27-6.19,3.63-8.87,6.11s-2.65,2.34-4.53-.82a63.07,63.07,0,0,1-9-37.92c1.42-18.61,8.9-33.75,26.13-42.55,18.85-9.64,41.38-2.86,53.12,15.5a58.38,58.38,0,0,1,8.77,27.61c.88,11.81.11,23.46-4.41,34.6A40.36,40.36,0,0,1,334.47,222c-.68.74-1.1,1.1-1.82,0a42,42,0,0,0-17.17-14.7,5.56,5.56,0,0,1-1-.76,39.91,39.91,0,0,0,9.57-19.67c2.07-12.11.63-23.6-7.06-33.63-7.1-9.29-20.05-11.72-29.31-5.82-1.27.81-1.66,1.31-.32,2.42a12.89,12.89,0,0,1,2.95,3.9,15,15,0,0,1-2.1,17.37c-4.1,4.3-9.08,4.94-15.52,1.78-1.92-.95-1.64.34-1.71,1.34C270.19,186.44,272.8,197.58,280.75,207.14Z"/><path class="cls-7" d="M127.76,205.61a49.83,49.83,0,0,0-17.83,11.55,53,53,0,0,0-5,6.27c-4.14-4.73-7.86-9.58-9.94-15.41-6.69-18.73-6.77-37.43,1.92-55.5C103,139.85,113,131,127.13,128.39c17.6-3.22,31.55,3.53,41.86,17.8,8.21,11.36,10.29,24.5,9.64,38.15a62.78,62.78,0,0,1-8.9,29.64c-.28.47-.37,1.1-1.15,1.37-2-2.58-4.62-4.5-7.07-6.65,10.35-11,13.36-24.2,10.88-38.73-1.59-9.29-5.75-17.34-14.12-22.39-7.39-4.46-15-4.63-22.63-.27-1.46.83-1.48,1.41-.28,2.64a15.09,15.09,0,0,1,4.43,13.26c-1.29,9.16-10,14.21-18,10.37-2.68-1.29-2.7-1.29-2.9,1.78A44.36,44.36,0,0,0,127.76,205.61Z"/><path class="cls-2" d="M229.12,234.26c-.5,6.92,6.23,12.73,12.94,13.28,8.15.67,14.76-2.35,19.65-9,.34-.46.65-.95,1-1.41,3-4,7.88-5.2,11.75-2.9a9.37,9.37,0,0,1,3.67,12.42,25.43,25.43,0,0,1-6.74,8.08c-11.08,9.55-23.61,13.23-37.94,8.94a33,33,0,0,1-12.73-7.26c-1.06-1-1.71-1.06-2.85-.05-14.84,13.22-35.63,11.4-50-1.32a41.51,41.51,0,0,1-6.31-6.87c-3.08-4.31-2.42-10,1.5-13s8.92-2.32,12.16,2.05c3.84,5.19,8.49,8.88,14.9,10s12.1.15,16.58-5a10.05,10.05,0,0,0,2.35-5.07c.12-.29.37-.61.33-.89-.27-2.27.87-2.68,2.89-2.6,3.84.15,7.68,0,11.53.08C225.58,233.8,227.41,233.41,229.12,234.26Z"/><path class="cls-8" d="M127.76,205.61a44.36,44.36,0,0,1-8.84-30.25c.2-3.07.22-3.07,2.9-1.78,7.92,3.84,16.68-1.21,18-10.37A15.09,15.09,0,0,0,135.36,150c-1.2-1.23-1.18-1.81.28-2.64,7.61-4.36,15.24-4.19,22.63.27,8.37,5,12.53,13.1,14.12,22.39,2.48,14.53-.53,27.7-10.88,38.73-3.16-1.14-6.18-2.62-9.44-3.49a44.41,44.41,0,0,0-21.91,0A6,6,0,0,1,127.76,205.61Z"/><path class="cls-8" d="M280.75,207.14c-7.95-9.56-10.56-20.7-9.72-32.86.07-1-.21-2.29,1.71-1.34,6.44,3.16,11.42,2.52,15.52-1.78a15,15,0,0,0,2.1-17.37,12.89,12.89,0,0,0-2.95-3.9c-1.34-1.11-1-1.61.32-2.42,9.26-5.9,22.21-3.47,29.31,5.82,7.69,10,9.13,21.52,7.06,33.63a39.91,39.91,0,0,1-9.57,19.67c-2.71-.2-5.14-1.5-7.79-2a43.65,43.65,0,0,0-22.21,1.64A8.85,8.85,0,0,1,280.75,207.14Z"/><path class="cls-2" d="M229.12,234.26c-1.71-.85-3.54-.46-5.31-.49-3.85-.06-7.69.07-11.53-.08-2-.08-3.16.33-2.89,2.6,0,.28-.21.6-.33.89.39-2.54-.93-3.87-3-5.25a63.81,63.81,0,0,1-15.78-15c-5.69-7.73-3.87-15.16,2.92-20.8a41.17,41.17,0,0,1,50-1.9c5,3.49,8.9,8,8.51,14.63-.26,4.45-2.62,8.1-5.49,11.3-4.43,4.95-9.18,9.6-14.94,13.06A23.38,23.38,0,0,1,229.12,234.26Z"/><path class="cls-2" d="M143.57,93.22a48.19,48.19,0,0,1,8.25.54A13.21,13.21,0,0,1,158.89,97c2.92,2.71,4.23,6,3.08,10a9.57,9.57,0,0,1-8,7.13,13.42,13.42,0,0,1-5.13-.11c-16.85-3.16-32.25-.1-45.94,10.56-4.11,3.2-8.84,2.86-11.93-.65a8.58,8.58,0,0,1,.8-12.35c8.68-8.07,19.13-12.85,30.49-15.76A83.29,83.29,0,0,1,143.57,93.22Z"/><path class="cls-2" d="M290.75,94.4c18.81.46,35.78,4.83,50.53,16a23.55,23.55,0,0,1,3.1,2.8,8.87,8.87,0,0,1,.47,11.89c-3,3.44-7.8,4-11.73.9a54.26,54.26,0,0,0-15.07-8.66c-10.22-3.65-20.66-4-31.27-2.21a12.05,12.05,0,0,1-9.6-2,9.39,9.39,0,0,1-3.87-9.26c.52-4.24,3-6.78,6.84-8.2C283.76,94.4,287.58,94.63,290.75,94.4Z"/></g></g></svg>