<svg xmlns="http://www.w3.org/2000/svg" viewBox="0 0 527.9 615.43"><defs><style>.cls-1{fill:#c4bdb8;opacity:0.23;}.cls-2{fill:#8d183b;}.cls-3{fill:#bdb8b1;}.cls-4{fill:#febe2a;}.cls-5{fill:#f58e24;}.cls-6{fill:#fbaf40;}.cls-7{fill:#fffefe;}.cls-8{fill:#02534e;}</style></defs><g id="Layer_2" data-name="Layer 2"><g id="Layer_1-2" data-name="Layer 1"><ellipse class="cls-1" cx="262.38" cy="570.63" rx="239.27" ry="44.79"/><path class="cls-2" d="M452.4,540.22c-3.15,3.19-5.69,6.9-9,10a63.35,63.35,0,0,1-42.16,17.65c-5.09.18-10.2,0-15.3,0a5.08,5.08,0,0,0-3.62,1c-17,13.83-36.67,19.89-58.33,20.14-21.24.24-40.66-5.43-57.78-18.25-1.47-1.1-2.41-1.14-3.85,0-22.38,17.23-47.74,21.22-74.92,16.53A84.1,84.1,0,0,1,147,568.79c-1.24-1-2.51-1-3.9-1-9.29.05-18.61.61-27.81-1.17-16.86-3.27-30.26-12-40.52-25.72-.41-.56-.1-1.47-1-1.74-2.41-4.81-5.74-9.15-7.36-14.34a86.35,86.35,0,0,1-3.18-13.69c-.48-3.41-1.76-6.77-1.87-10.18A76.3,76.3,0,0,1,76,453.41c3.44-4.89,7-9.56,11.71-13.17,3.6-2.79,7.08-6,11.51-7.51,3.7-1.29,6.86-3.73,10.76-4.65,2.86-.67,5.52-2.27,8.53-2.39,3.19-.12,4-2.56,4.69-4.85,2.24-7.11,5.24-13.93,8-20.86.38-1-.1-2.31,1.33-3.11.61-.34-.07-1.43-1.2-2.05-7.77-4.27-15.48-8.66-22.89-13.55a141.8,141.8,0,0,1-24.64-20.39c-1.46-1.52-2.57-1.4-4.12-.52a30.38,30.38,0,0,1-35.35-3.75c-8.39-7.59-12.48-17.22-15.06-27.95-1.28-5.3-1.89-10.67-3-16-.42-2-2.54-3-4-4.14C15,303.17,8.9,296.9,4.55,288.91A41,41,0,0,1,.22,275.7a25.49,25.49,0,0,1,1.52-12.09C2.86,260.36,5,257.78,7,255.08c2.48-3.39,6.33-5.12,9.48-7.71a69.49,69.49,0,0,0,7.82-7,8.39,8.39,0,0,0,2-5.65c0-.9,0-1.81,0-2.7-.61-10,.24-19.9,1-29.75.68-8.89,1.44-17.87,3.41-26.7,1.49-6.71,3.27-13.37,4.95-20a163.81,163.81,0,0,1,7.81-23.89c2.85-6.74,5.22-13.69,8.79-20.09,2-3.65.65-7.23-.21-10.48-1.81-6.81-3.54-13.67-4.89-20.56-.67-3.46-.47-7.35-1.08-10.85-1.11-6.48-.42-12.9-.6-19.33A80.43,80.43,0,0,1,48.35,27c1-3.66,1.65-7.58,3.52-10.7s3.66-6.53,6.85-9.09A47,47,0,0,1,68.23.88,6.72,6.72,0,0,1,71.31.14c5,0,10,.34,15-.07C92.68-.46,97.64,2.93,103,5.31a78.36,78.36,0,0,1,9.61,5.5c4.92,3.13,9.65,6.59,14.55,9.73s9.18,7.36,14.27,10.4c3.07,1.83,5.53,4.65,8.35,6.94,5.64,4.59,11.44,9,16.72,14,1.55,1.48,3.73,2.26,5.12,4a1.86,1.86,0,0,0,2,.42c5.41-1.24,11-1.6,16.36-2.77s10.42-1.36,15.64-2c8-1,16.14-1,24.16-1.74,21.21-1.91,42.43-.78,63.62-.55,5.93.07,12.23-.35,18.15,1.53a5,5,0,0,0,1.5,0c5.62,0,11.09,1.07,16.62,1.89a100.76,100.76,0,0,0,10.22,1.19,70.84,70.84,0,0,1,14.44,2.2A5,5,0,0,0,359.17,55c5.2-4.52,10.26-9.2,16-13.12,3-2,5.28-5,8.28-7,3.48-2.26,6.11-5.56,10-7.42,1.89-.9,3.43-2.75,5.28-4.05,4.64-3.26,9.33-6.5,13.83-9.91C418.83,8.79,426.27,6.63,433,3,438.76-.22,444.77.53,450.82.07c9.61-.73,16,4.1,21.43,11.18,4.38,5.71,6.78,12.09,8.23,19.12a64.59,64.59,0,0,1,1.4,15.77c-.08,1.86,1,3.46.82,5.21-.86,7.3-.42,14.66-1.17,21.95-1,9.37-3.13,18.52-5.36,27.65-.46,1.88-.85,3.77-1.19,5.67-.67,3.82,1.92,6.71,3.16,9.91,1.43,3.69,2.84,7.42,4.51,11a132.1,132.1,0,0,1,6.61,18.37c1.53,5.2,2.52,10.65,4.2,15.81a159.85,159.85,0,0,1,4.28,17.19c.74,3.58,1.06,7.36,1.62,11,1.88,12.21,1.34,24.51,1.72,36.79a43,43,0,0,0,.91,9.31c1.05,4,4,7,7.38,9.16a51.09,51.09,0,0,1,13.86,12.55,27.27,27.27,0,0,1,4.34,11c.9,4.69-.21,8.93-1,13.2a22.54,22.54,0,0,1-3,7.41,54.74,54.74,0,0,1-10.28,12.89c-3.38,3-6.58,6.17-10.19,8.91-1.4,1.07-1.84,2.59-2,4.39a102.08,102.08,0,0,1-3.24,17.17,53.46,53.46,0,0,1-7.71,16.53,39.18,39.18,0,0,1-15.31,12.81,24.54,24.54,0,0,1-13.68,2.13,35.6,35.6,0,0,1-13.19-3.95c-2-1.12-3.48-1.73-4.77,1.19a8.37,8.37,0,0,1-4.3,3.87c-2.95,1.35-4.51,4.69-7.43,6.23-5.36,2.83-9.45,7.35-14.44,10.74-5.67,3.86-12,6.51-17.45,10.68-.48.37-1.35.19-2,.43-1,.39-1.61,1.05-1,2.22,3.81,7.59,5.61,15.95,9.15,23.65a10,10,0,0,1,.49,2.85c.45,3.15,2.79,3.66,5.11,4.2a62.94,62.94,0,0,1,24.64,11.42c4.08,3.16,8.21,6.19,11.22,10.36,2.77,3.84,5.57,7.65,8,11.75,3,5,4.83,10.5,7.11,15.77a24.37,24.37,0,0,1,1.6,7.14c.26,2.9.95,5.85,1.32,8.71.56,4.23,1.66,8.79-.68,13a2.21,2.21,0,0,0-.25,1.13c.43,6.13-1.53,11.92-3.21,17.58-1.63,5.49-4.81,10.49-8,15.35-.3.06-.41.21-.29.51C452.63,539.43,452.52,539.83,452.4,540.22ZM467.67,58.94c.74-4.49.09-9.79-.33-15-.62-7.88-1.75-15.72-6.07-22.66-3.6-5.78-8.94-8.16-15.59-6.86a52.19,52.19,0,0,0-15.79,6.33C406,34.3,385.12,51.8,365.41,70.78A7.37,7.37,0,0,1,358.2,73,478.53,478.53,0,0,0,293,65.73c-14.76-.73-29.56-.77-44.36-.4-26,.65-51.88,2.5-77.49,7.33a7.54,7.54,0,0,1-7.33-2.16,354.72,354.72,0,0,0-51-41.69c-8-5.42-16.41-10.35-25.65-13.54-10.27-3.55-17.47-.62-22.32,9.15-3.49,7-4.47,14.69-4.87,22.4-1,20,2.63,39.4,8.47,58.44a9.88,9.88,0,0,1-.47,8c-10.18,19.57-16.55,40.46-21.18,61.93a240.91,240.91,0,0,0-5,57.2c.23,9.05-3.3,16.47-10,22.52-3.36,3-7.28,5.28-10.81,8.05-5.41,4.24-6.88,9.76-4.14,16,3.59,8.14,9.9,14,16.85,19.13,9.19,6.78,6.82,3.65,8.25,15.08,1.13,9.06,2.46,18.07,7.22,26.08,5.28,8.91,15.1,13.34,25.19,6.14q2.07-1.49,4.17-2.93c4.49-3.1,7.68-2.71,11.29,1.36a152.47,152.47,0,0,0,19.69,18.84c12.9,10.16,26.88,18.35,42.53,23.58a14.36,14.36,0,0,0,10.21-.28,48,48,0,0,0,9.85-5.67c5.19-3.58,8.26-3.4,12.78.93,13,12.42,28.47,20.17,45.75,24.46a136.41,136.41,0,0,0,60.93,1.13c19.77-4.07,37.52-12.35,52.06-26.75,2.81-2.78,5.51-3.12,9.31-1.11a71,71,0,0,1,6.33,4c6.34,4.25,12.74,5.14,20.11,2.14a156.85,156.85,0,0,0,58-41c3.87-4.29,7-4.81,11.8-1.64a66.66,66.66,0,0,0,7.37,4.59c6.7,3.26,13.09,2.23,18.35-3.09a32.48,32.48,0,0,0,7.56-13.13c2.52-7.65,3.49-15.58,4.14-23.56.21-2.58,1.06-4.55,3.4-5.91a43.61,43.61,0,0,0,5.4-3.78c6.42-5.16,12.59-10.57,15.69-18.54,2.57-6.6,1-12.15-4.54-16.49-1.58-1.22-3.24-2.35-4.92-3.43-10.78-6.94-16.31-16.49-15.74-29.63a191.5,191.5,0,0,0-2.2-38.25c-4.32-27.42-11.95-53.8-24.29-78.73a6.83,6.83,0,0,1-.39-5.47C463.9,91.66,467.26,76,467.67,58.94ZM323,573.29c3.77-.08,7.56-.14,11.35-.49,31-2.86,55.32-25.78,62.3-57.53,4.72-21.49,4.28-43.06,1.05-64.67-2.38-15.91-6.67-31.25-14.21-45.56-1.2-2.28-2.26-4.1-5.43-2.6-1.43.68-3.35.44-5,.43-7.38-.06-14.11-2.6-20.6-5.81a3.48,3.48,0,0,0-4.47.5,118.26,118.26,0,0,1-40.23,22.05,145.56,145.56,0,0,1-69.62,4.61c-21.77-3.75-41.6-12.05-58.77-26.16-2.14-1.77-3.56-2.16-6.14-.74-7,3.86-14.44,6.7-22.63,5.21-2.82-.52-3.87.34-5,2.63a156.25,156.25,0,0,0-13.32,41.54c-4,22.75-4.55,45.54.37,68.21,4.16,19.19,13.55,35.21,30.25,46.19,19.75,13,41.45,14.71,64,10,12.73-2.68,23.49-9.34,33.08-18,3.27-3,5.4-3,8.39-.28C283.82,567,302,574,323,573.29Zm-246.27-76A52.37,52.37,0,0,0,78,509.44c5.14,24.16,21.42,42.43,50.14,42.82.92,0,2.18.59,2.72-.44.43-.83-.55-1.63-1-2.37a100.59,100.59,0,0,1-10.36-23.53c-7.77-26.55-7.57-53.4-2.9-80.41.15-.87.82-1.93.12-2.56s-1.87.16-2.74.48C91.41,451.6,76.81,472.61,76.77,497.33Zm373.17,4.41c0-16.68-3.67-28.46-11.42-39.1a55.71,55.71,0,0,0-22.94-18.75c-.89-.38-1.93-1.27-2.78-.72-1.07.67-.05,1.81.07,2.73.45,3.46,1.09,6.9,1.51,10.37a188,188,0,0,1-.08,48.4,121.09,121.09,0,0,1-15.93,45.83c-.64,1.08-1.64,2.3.78,2.16,7.84-.47,15.54-1.69,22.5-5.57C440.74,536.46,449.15,519.55,449.94,501.74Z"/><path class="cls-3" d="M452.75,539c-.12-.3,0-.45.29-.51Z"/><path class="cls-4" d="M467.67,58.94c-.41,17-3.77,32.72-8.65,48.12a6.83,6.83,0,0,0,.39,5.47c12.34,24.93,20,51.31,24.29,78.73a191.5,191.5,0,0,1,2.2,38.25c-.57,13.14,5,22.69,15.74,29.63,1.68,1.08,3.34,2.21,4.92,3.43,5.58,4.34,7.11,9.89,4.54,16.49-3.1,8-9.27,13.38-15.69,18.54a43.61,43.61,0,0,1-5.4,3.78c-2.34,1.36-3.19,3.33-3.4,5.91-.65,8-1.62,15.91-4.14,23.56A32.48,32.48,0,0,1,474.91,344c-5.26,5.32-11.65,6.35-18.35,3.09a66.66,66.66,0,0,1-7.37-4.59c-4.84-3.17-7.93-2.65-11.8,1.64a156.85,156.85,0,0,1-58,41c-7.37,3-13.77,2.11-20.11-2.14a71,71,0,0,0-6.33-4c-3.8-2-6.5-1.67-9.31,1.11-14.54,14.4-32.29,22.68-52.06,26.75a136.41,136.41,0,0,1-60.93-1.13c-17.28-4.29-32.77-12-45.75-24.46-4.52-4.33-7.59-4.51-12.78-.93a48,48,0,0,1-9.85,5.67,14.36,14.36,0,0,1-10.21.28c-15.65-5.23-29.63-13.42-42.53-23.58a152.47,152.47,0,0,1-19.69-18.84c-3.61-4.07-6.8-4.46-11.29-1.36q-2.1,1.44-4.17,2.93c-10.09,7.2-19.91,2.77-25.19-6.14-4.76-8-6.09-17-7.22-26.08-1.43-11.43.94-8.3-8.25-15.08-6.95-5.12-13.26-11-16.85-19.13-2.74-6.24-1.27-11.76,4.14-16,3.53-2.77,7.45-5,10.81-8.05,6.69-6.05,10.22-13.47,10-22.52a240.91,240.91,0,0,1,5-57.2c4.63-21.47,11-42.36,21.18-61.93a9.88,9.88,0,0,0,.47-8C62.64,86.22,59,66.85,60,46.82c.4-7.71,1.38-15.37,4.87-22.4,4.85-9.77,12.05-12.7,22.32-9.15,9.24,3.19,17.6,8.12,25.65,13.54a354.72,354.72,0,0,1,51,41.69,7.54,7.54,0,0,0,7.33,2.16c25.61-4.83,51.48-6.68,77.49-7.33,14.8-.37,29.6-.33,44.36.4A478.53,478.53,0,0,1,358.2,73a7.37,7.37,0,0,0,7.21-2.25C385.12,51.8,406,34.3,429.89,20.7a52.19,52.19,0,0,1,15.79-6.33c6.65-1.3,12,1.08,15.59,6.86,4.32,6.94,5.45,14.78,6.07,22.66C467.76,49.15,468.41,54.45,467.67,58.94ZM279,285.26A25.25,25.25,0,0,0,281.7,284c7-4.21,12.79-9.88,18.19-15.9,3.49-3.9,6.37-8.35,6.68-13.77.47-8.11-4.32-13.56-10.36-17.8a50.12,50.12,0,0,0-60.91,2.3c-8.26,6.88-10.48,15.92-3.56,25.33A77.65,77.65,0,0,0,251,282.42c2.48,1.68,4.09,3.31,3.62,6.4a12.26,12.26,0,0,1-2.87,6.17c-5.45,6.28-12.48,7.48-20.19,6.09s-13.46-5.9-18.14-12.23c-3.94-5.32-10.22-6-14.8-2.49-4.78,3.71-5.58,10.63-1.83,15.87a50,50,0,0,0,7.68,8.37c17.47,15.49,42.8,17.71,60.86,1.61,1.39-1.23,2.19-1.1,3.47.06a40.28,40.28,0,0,0,15.5,8.84c17.46,5.22,32.72.74,46.21-10.88,3.25-2.8,6.3-5.87,8.2-9.84a11.4,11.4,0,0,0-4.46-15.12c-4.72-2.81-10.62-1.35-14.31,3.53-.42.55-.8,1.15-1.22,1.71-5.95,8.06-14,11.74-23.92,10.93C286.58,300.77,278.39,293.69,279,285.26ZM155.57,250.37a7.53,7.53,0,0,0,2.93-.49,54.15,54.15,0,0,1,26.68,0c4,1.06,7.65,2.87,11.5,4.26,3,2.62,6.22,4.95,8.61,8.09.94-.33,1.05-1.09,1.4-1.67a76.37,76.37,0,0,0,10.83-36.08c.79-16.63-1.74-32.62-11.74-46.47-12.55-17.37-29.54-25.59-51-21.67-17.21,3.15-29.39,13.95-36.82,29.38-10.59,22-10.49,44.78-2.35,67.59,2.54,7.1,7.07,13,12.11,18.76a65.42,65.42,0,0,1,6.11-7.63A60.67,60.67,0,0,1,155.57,250.37ZM383,251.57a6.76,6.76,0,0,0,1.16.93,51.1,51.1,0,0,1,20.91,17.9c.87,1.31,1.38.87,2.21,0a49.14,49.14,0,0,0,9.08-15.05c5.5-13.57,6.45-27.76,5.37-42.13-.9-12-4.1-23.35-10.68-33.63-14.29-22.35-41.73-30.61-64.69-18.88-21,10.73-30.08,29.16-31.81,51.83a76.82,76.82,0,0,0,11,46.17c2.29,3.84,2.26,4,5.52,1s7.4-4.67,10.8-7.44c1.65.16,3.11-.57,4.6-1.08a53,53,0,0,1,27-2C376.75,249.74,379.71,251.33,383,251.57Zm-208.18-138a101,101,0,0,0-25.91,3.12c-13.83,3.54-26.56,9.37-37.14,19.2-4.63,4.31-4.89,10.57-1,15,3.76,4.28,9.52,4.7,14.53.8,16.67-13,35.43-16.71,55.94-12.86a16.38,16.38,0,0,0,6.24.13c5-.95,8.3-3.8,9.71-8.67s-.19-8.89-3.74-12.19a16.22,16.22,0,0,0-8.62-3.91A58.58,58.58,0,0,0,174.83,113.52ZM354.05,115c-3.86.29-8.51,0-12.9,1.65-4.63,1.73-7.71,4.82-8.34,10a11.45,11.45,0,0,0,4.71,11.28c3.48,2.6,7.5,3.09,11.7,2.38,12.91-2.18,25.63-1.75,38.08,2.7a66,66,0,0,1,18.34,10.54c4.79,3.73,10.61,3.1,14.29-1.09,3.54-4,3.33-10.22-.58-14.48a28.24,28.24,0,0,0-3.76-3.41C397.62,120.83,377,115.51,354.05,115Z"/><path class="cls-4" d="M323,573.29c-21.06.69-39.22-6.33-54.7-20.5-3-2.73-5.12-2.68-8.39.28-9.59,8.66-20.35,15.32-33.08,18-22.51,4.74-44.21,3-64-10-16.7-11-26.09-27-30.25-46.19-4.92-22.67-4.34-45.46-.37-68.21a156.25,156.25,0,0,1,13.32-41.54c1.12-2.29,2.17-3.15,5-2.63,8.19,1.49,15.63-1.35,22.63-5.21,2.58-1.42,4-1,6.14.74,17.17,14.11,37,22.41,58.77,26.16a145.56,145.56,0,0,0,69.62-4.61A118.26,118.26,0,0,0,348,397.56a3.48,3.48,0,0,1,4.47-.5c6.49,3.21,13.22,5.75,20.6,5.81,1.69,0,3.61.25,5-.43,3.17-1.5,4.23.32,5.43,2.6,7.54,14.31,11.83,29.65,14.21,45.56,3.23,21.61,3.67,43.18-1.05,64.67-7,31.75-31.33,54.67-62.3,57.53C330.6,573.15,326.81,573.21,323,573.29Zm-58.68-38.83.6,0a11,11,0,0,0,.25-1.37,106,106,0,0,1,4.52-24.23c1.84-6.23,4.85-12,6.9-18.1,1.17-3.49,0-5.09-3.75-5.11-5.64,0-11.29,0-16.93,0-3.34,0-4.17,1-4,4.38a8,8,0,0,0,1.07,3.07,107.78,107.78,0,0,1,8.58,26.27C262.67,524.36,263.46,529.42,264.36,534.46Z"/><path class="cls-4" d="M76.77,497.33c0-24.72,14.64-45.73,37.24-53.9.87-.32,1.89-1.23,2.74-.48s0,1.69-.12,2.56c-4.67,27-4.87,53.86,2.9,80.41a100.59,100.59,0,0,0,10.36,23.53c.44.74,1.42,1.54,1,2.37-.54,1-1.8.45-2.72.44-28.72-.39-45-18.66-50.14-42.82A52.37,52.37,0,0,1,76.77,497.33Z"/><path class="cls-4" d="M449.94,501.74c-.79,17.81-9.2,34.72-28.29,45.35-7,3.88-14.66,5.1-22.5,5.57-2.42.14-1.42-1.08-.78-2.16a121.09,121.09,0,0,0,15.93-45.83,188,188,0,0,0,.08-48.4c-.42-3.47-1.06-6.91-1.51-10.37-.12-.92-1.14-2.06-.07-2.73.85-.55,1.89.34,2.78.72a55.71,55.71,0,0,1,22.94,18.75C446.27,473.28,449.93,485.06,449.94,501.74Z"/><path class="cls-5" d="M264.36,534.46c-.9-5-1.69-10.1-2.72-15.11a107.78,107.78,0,0,0-8.58-26.27A8,8,0,0,1,252,490c-.21-3.37.62-4.37,4-4.38,5.64,0,11.29,0,16.93,0,3.73,0,4.92,1.62,3.75,5.11-2.05,6.12-5.06,11.87-6.9,18.1a106,106,0,0,0-4.52,24.23,11,11,0,0,1-.25,1.37Z"/><path class="cls-6" d="M378.91,97.81c-16.46,12.44-38.77-1.84-55.25,3.94a24.05,24.05,0,0,1-16.06-.14,125.27,125.27,0,0,0-87.68,1,21.25,21.25,0,0,1-14.82.39C188.45,96.86,166,112,149.17,99.71c-62.24-45.45-77.11,25.54-76.69,77,.32,37.82,25.19,87.9,59.15,107.35a45.55,45.55,0,0,1,22,28.88c14,58.92,50.31,86.42,112.89,86,62.57-.64,98.41-28.73,111.44-87.88a45.57,45.57,0,0,1,21.53-29.24c33.63-20,57.68-70.49,57.36-108.31C456.44,122.07,440.39,51.33,378.91,97.81Z"/><path class="cls-7" d="M341.88,252.24c-3.4,2.77-7.55,4.42-10.8,7.44s-3.23,2.84-5.52-1a76.82,76.82,0,0,1-11-46.17c1.73-22.67,10.84-41.1,31.81-51.83,23-11.73,50.4-3.47,64.69,18.88,6.58,10.28,9.78,21.63,10.68,33.63,1.08,14.37.13,28.56-5.37,42.13a49.14,49.14,0,0,1-9.08,15.05c-.83.9-1.34,1.34-2.21,0a51.1,51.1,0,0,0-20.91-17.9,6.76,6.76,0,0,1-1.16-.93,48.6,48.6,0,0,0,11.65-23.95c2.53-14.75.76-28.74-8.59-41-8.65-11.3-24.43-14.27-35.7-7.09-1.55,1-2,1.61-.39,3a15.8,15.8,0,0,1,3.6,4.76A18.24,18.24,0,0,1,351,208.43c-5,5.23-11,6-18.9,2.16-2.34-1.15-2,.42-2.08,1.64C329,227,332.2,240.6,341.88,252.24Z"/><path class="cls-7" d="M155.57,250.37a60.67,60.67,0,0,0-21.71,14.07,65.42,65.42,0,0,0-6.11,7.63c-5-5.75-9.57-11.66-12.11-18.76-8.14-22.81-8.24-45.58,2.35-67.59,7.43-15.43,19.61-26.23,36.82-29.38,21.43-3.92,38.42,4.3,51,21.67,10,13.85,12.53,29.84,11.74,46.47a76.37,76.37,0,0,1-10.83,36.08c-.35.58-.46,1.34-1.4,1.67-2.39-3.14-5.63-5.47-8.61-8.1,12.6-13.42,16.27-29.46,13.24-47.16-1.93-11.31-7-21.11-17.19-27.26-9-5.43-18.3-5.64-27.56-.33-1.78,1-1.81,1.72-.34,3.21a18.37,18.37,0,0,1,5.39,16.15c-1.57,11.16-12.23,17.31-21.88,12.64-3.26-1.58-3.29-1.58-3.52,2.15C144,227.1,147.39,239.43,155.57,250.37Z"/><path class="cls-2" d="M279,285.26c-.62,8.43,7.57,15.51,15.75,16.18,9.92.81,18-2.87,23.92-10.93.42-.56.8-1.16,1.22-1.71,3.69-4.88,9.59-6.34,14.31-3.53a11.4,11.4,0,0,1,4.46,15.12c-1.9,4-4.95,7-8.2,9.84-13.49,11.62-28.75,16.1-46.21,10.88a40.28,40.28,0,0,1-15.5-8.84c-1.28-1.16-2.08-1.29-3.47-.06-18.06,16.1-43.39,13.88-60.86-1.61a50,50,0,0,1-7.68-8.37c-3.75-5.24-2.95-12.16,1.83-15.87,4.58-3.55,10.86-2.83,14.8,2.49,4.68,6.33,10.34,10.82,18.14,12.23s14.74.19,20.19-6.09a12.26,12.26,0,0,0,2.87-6.17c.14-.36.45-.74.4-1.08-.34-2.77,1.06-3.27,3.51-3.17,4.68.19,9.36,0,14,.1C274.7,284.7,276.93,284.23,279,285.26Z"/><path class="cls-8" d="M155.57,250.37c-8.18-10.94-11.6-23.27-10.75-36.84.23-3.73.26-3.73,3.52-2.15,9.65,4.67,20.31-1.48,21.88-12.64a18.37,18.37,0,0,0-5.39-16.15c-1.47-1.49-1.44-2.19.34-3.21,9.26-5.31,18.56-5.1,27.56.33,10.19,6.15,15.26,15.95,17.19,27.26,3,17.7-.64,33.74-13.24,47.16-3.85-1.38-7.53-3.19-11.5-4.25a54.15,54.15,0,0,0-26.68,0A7.53,7.53,0,0,1,155.57,250.37Z"/><path class="cls-8" d="M341.88,252.24C332.2,240.6,329,227,330,212.23c.08-1.22-.26-2.79,2.08-1.64,7.85,3.85,13.91,3.07,18.9-2.16a18.24,18.24,0,0,0,2.56-21.15,15.8,15.8,0,0,0-3.6-4.76c-1.62-1.34-1.16-2,.39-3,11.27-7.18,27.05-4.21,35.7,7.09,9.35,12.22,11.12,26.21,8.59,41A48.6,48.6,0,0,1,383,251.57c-3.3-.24-6.26-1.83-9.49-2.41a53,53,0,0,0-27,2C345,251.67,343.53,252.4,341.88,252.24Z"/><path class="cls-2" d="M279,285.26c-2.08-1-4.31-.56-6.48-.59-4.68-.08-9.36.09-14-.1-2.45-.1-3.85.4-3.51,3.17.05.34-.26.72-.4,1.08.47-3.09-1.14-4.72-3.62-6.4a77.65,77.65,0,0,1-19.22-18.24c-6.92-9.41-4.7-18.45,3.56-25.33a50.12,50.12,0,0,1,60.91-2.3c6,4.24,10.83,9.69,10.36,17.8-.31,5.42-3.19,9.87-6.68,13.77-5.4,6-11.18,11.69-18.19,15.9A25.25,25.25,0,0,1,279,285.26Z"/><path class="cls-2" d="M174.83,113.52a58.58,58.58,0,0,1,10,.65,16.22,16.22,0,0,1,8.62,3.91c3.55,3.3,5.14,7.35,3.74,12.19s-4.73,7.72-9.71,8.67a16.38,16.38,0,0,1-6.24-.13c-20.51-3.85-39.27-.12-55.94,12.86-5,3.9-10.77,3.48-14.53-.8-3.92-4.46-3.66-10.72,1-15,10.58-9.83,23.31-15.66,37.14-19.2A101,101,0,0,1,174.83,113.52Z"/><path class="cls-2" d="M354.05,115c22.91.56,43.57,5.88,61.54,19.55a28.24,28.24,0,0,1,3.76,3.41c3.91,4.26,4.12,10.45.58,14.48-3.68,4.19-9.5,4.82-14.29,1.09a66,66,0,0,0-18.34-10.54c-12.45-4.45-25.17-4.88-38.08-2.7-4.2.71-8.22.22-11.7-2.38a11.45,11.45,0,0,1-4.71-11.28c.63-5.16,3.71-8.25,8.34-10C345.54,115,350.19,115.24,354.05,115Z"/></g></g></svg>